<mxfile host="app.diagrams.net" modified="2021-10-11T13:56:59.622Z" agent="5.0 (Macintosh)" etag="gIYdrbAQ74D5Iod9vEfc" version="15.4.0" type="github">
  <diagram id="VEaD7B72BElkK8YyiV1R" name="Page-1">
    <mxGraphModel dx="1796" dy="517" grid="1" gridSize="10" guides="1" tooltips="1" connect="1" arrows="1" fold="1" page="1" pageScale="1" pageWidth="850" pageHeight="1100" math="0" shadow="0">
      <root>
        <mxCell id="0" />
        <mxCell id="1" parent="0" />
        <mxCell id="9cMMnHmITgyh7-pgQpCl-18" style="edgeStyle=orthogonalEdgeStyle;rounded=0;orthogonalLoop=1;jettySize=auto;html=1;dashed=1;endArrow=block;endFill=0;entryX=0.5;entryY=1;entryDx=0;entryDy=0;" edge="1" parent="1" source="9cMMnHmITgyh7-pgQpCl-1" target="9cMMnHmITgyh7-pgQpCl-26">
          <mxGeometry relative="1" as="geometry">
            <mxPoint x="170" y="370" as="targetPoint" />
          </mxGeometry>
        </mxCell>
        <mxCell id="9cMMnHmITgyh7-pgQpCl-19" value="implements" style="edgeLabel;html=1;align=center;verticalAlign=middle;resizable=0;points=[];" vertex="1" connectable="0" parent="9cMMnHmITgyh7-pgQpCl-18">
          <mxGeometry x="-0.0889" y="-3" relative="1" as="geometry">
            <mxPoint as="offset" />
          </mxGeometry>
        </mxCell>
        <mxCell id="9cMMnHmITgyh7-pgQpCl-1" value="BudgetInfoViewImpl" style="swimlane;fontStyle=1;align=center;verticalAlign=top;childLayout=stackLayout;horizontal=1;startSize=26;horizontalStack=0;resizeParent=1;resizeParentMax=0;resizeLast=0;collapsible=1;marginBottom=0;" vertex="1" parent="1">
          <mxGeometry x="70" y="400" width="160" height="170" as="geometry" />
        </mxCell>
        <mxCell id="9cMMnHmITgyh7-pgQpCl-2" value="+ field: type" style="text;strokeColor=none;fillColor=none;align=left;verticalAlign=top;spacingLeft=4;spacingRight=4;overflow=hidden;rotatable=0;points=[[0,0.5],[1,0.5]];portConstraint=eastwest;" vertex="1" parent="9cMMnHmITgyh7-pgQpCl-1">
          <mxGeometry y="26" width="160" height="26" as="geometry" />
        </mxCell>
        <mxCell id="9cMMnHmITgyh7-pgQpCl-3" value="" style="line;strokeWidth=1;fillColor=none;align=left;verticalAlign=middle;spacingTop=-1;spacingLeft=3;spacingRight=3;rotatable=0;labelPosition=right;points=[];portConstraint=eastwest;" vertex="1" parent="9cMMnHmITgyh7-pgQpCl-1">
          <mxGeometry y="52" width="160" height="8" as="geometry" />
        </mxCell>
        <mxCell id="9cMMnHmITgyh7-pgQpCl-4" value="+ CalculatorViewImpl()&#xa;&#xa;+ setDisplay(value: double):&#xa;void&#xa;&#xa;+getBudgets(): Budgets&#xa;&#xa;" style="text;strokeColor=none;fillColor=none;align=left;verticalAlign=top;spacingLeft=4;spacingRight=4;overflow=hidden;rotatable=0;points=[[0,0.5],[1,0.5]];portConstraint=eastwest;" vertex="1" parent="9cMMnHmITgyh7-pgQpCl-1">
          <mxGeometry y="60" width="160" height="110" as="geometry" />
        </mxCell>
        <mxCell id="9cMMnHmITgyh7-pgQpCl-5" value="BudgetInfo" style="swimlane;fontStyle=1;align=center;verticalAlign=top;childLayout=stackLayout;horizontal=1;startSize=26;horizontalStack=0;resizeParent=1;resizeParentMax=0;resizeLast=0;collapsible=1;marginBottom=0;" vertex="1" parent="1">
          <mxGeometry x="360" y="400" width="160" height="60" as="geometry" />
        </mxCell>
        <mxCell id="9cMMnHmITgyh7-pgQpCl-7" value="" style="line;strokeWidth=1;fillColor=none;align=left;verticalAlign=middle;spacingTop=-1;spacingLeft=3;spacingRight=3;rotatable=0;labelPosition=right;points=[];portConstraint=eastwest;" vertex="1" parent="9cMMnHmITgyh7-pgQpCl-5">
          <mxGeometry y="26" width="160" height="8" as="geometry" />
        </mxCell>
        <mxCell id="9cMMnHmITgyh7-pgQpCl-8" value="+ getBudgets(): Budgets" style="text;strokeColor=none;fillColor=none;align=left;verticalAlign=top;spacingLeft=4;spacingRight=4;overflow=hidden;rotatable=0;points=[[0,0.5],[1,0.5]];portConstraint=eastwest;" vertex="1" parent="9cMMnHmITgyh7-pgQpCl-5">
          <mxGeometry y="34" width="160" height="26" as="geometry" />
        </mxCell>
        <mxCell id="9cMMnHmITgyh7-pgQpCl-24" style="edgeStyle=orthogonalEdgeStyle;rounded=0;orthogonalLoop=1;jettySize=auto;html=1;entryX=0.5;entryY=0;entryDx=0;entryDy=0;endArrow=classic;endFill=1;" edge="1" parent="1" source="9cMMnHmITgyh7-pgQpCl-13" target="9cMMnHmITgyh7-pgQpCl-5">
          <mxGeometry relative="1" as="geometry" />
        </mxCell>
        <mxCell id="9cMMnHmITgyh7-pgQpCl-13" value="UserBudgetInfoPresenter" style="swimlane;fontStyle=1;align=center;verticalAlign=top;childLayout=stackLayout;horizontal=1;startSize=26;horizontalStack=0;resizeParent=1;resizeParentMax=0;resizeLast=0;collapsible=1;marginBottom=0;" vertex="1" parent="1">
          <mxGeometry x="360" y="200" width="160" height="154" as="geometry" />
        </mxCell>
        <mxCell id="9cMMnHmITgyh7-pgQpCl-15" value="" style="line;strokeWidth=1;fillColor=none;align=left;verticalAlign=middle;spacingTop=-1;spacingLeft=3;spacingRight=3;rotatable=0;labelPosition=right;points=[];portConstraint=eastwest;" vertex="1" parent="9cMMnHmITgyh7-pgQpCl-13">
          <mxGeometry y="26" width="160" height="8" as="geometry" />
        </mxCell>
        <mxCell id="9cMMnHmITgyh7-pgQpCl-16" value="+ UserBudgetInfoPresenter(&#xa;BudgetInfo model, &#xa;&#xa;BudgetInfoView view)&#xa;+ setDisplay(value: double): &#xa;void&#xa;" style="text;strokeColor=none;fillColor=none;align=left;verticalAlign=top;spacingLeft=4;spacingRight=4;overflow=hidden;rotatable=0;points=[[0,0.5],[1,0.5]];portConstraint=eastwest;" vertex="1" parent="9cMMnHmITgyh7-pgQpCl-13">
          <mxGeometry y="34" width="160" height="120" as="geometry" />
        </mxCell>
        <mxCell id="9cMMnHmITgyh7-pgQpCl-21" value="Model" style="ellipse;whiteSpace=wrap;html=1;" vertex="1" parent="1">
          <mxGeometry x="520" y="406" width="80" height="80" as="geometry" />
        </mxCell>
        <mxCell id="9cMMnHmITgyh7-pgQpCl-22" value="binds model and view" style="ellipse;whiteSpace=wrap;html=1;" vertex="1" parent="1">
          <mxGeometry x="520" y="206" width="80" height="80" as="geometry" />
        </mxCell>
        <mxCell id="9cMMnHmITgyh7-pgQpCl-23" value="View (Vaadin)" style="ellipse;whiteSpace=wrap;html=1;" vertex="1" parent="1">
          <mxGeometry x="-10" y="406" width="80" height="80" as="geometry" />
        </mxCell>
        <mxCell id="9cMMnHmITgyh7-pgQpCl-25" style="edgeStyle=orthogonalEdgeStyle;rounded=0;orthogonalLoop=1;jettySize=auto;html=1;endArrow=classic;endFill=1;entryX=1;entryY=0.5;entryDx=0;entryDy=0;" edge="1" parent="1" source="9cMMnHmITgyh7-pgQpCl-16" target="9cMMnHmITgyh7-pgQpCl-26">
          <mxGeometry relative="1" as="geometry">
            <mxPoint x="260" y="260" as="targetPoint" />
          </mxGeometry>
        </mxCell>
        <mxCell id="9cMMnHmITgyh7-pgQpCl-26" value="&lt;p style=&quot;margin: 0px ; margin-top: 4px ; text-align: center&quot;&gt;&lt;i&gt;&amp;lt;&amp;lt;Interface&amp;gt;&amp;gt;&lt;/i&gt;&lt;br&gt;&lt;b&gt;BudgetInfoView&lt;/b&gt;&lt;/p&gt;&lt;hr size=&quot;1&quot;&gt;&lt;p style=&quot;margin: 0px ; margin-left: 4px&quot;&gt;&lt;br&gt;&lt;br&gt;&lt;/p&gt;&lt;hr size=&quot;1&quot;&gt;&lt;p style=&quot;margin: 0px ; margin-left: 4px&quot;&gt;+ setDisplay(value: double): void&lt;/p&gt;&lt;p style=&quot;margin: 0px ; margin-left: 4px&quot;&gt;+ getBudgets(): Budgets&lt;br&gt;&lt;/p&gt;" style="verticalAlign=top;align=left;overflow=fill;fontSize=12;fontFamily=Helvetica;html=1;" vertex="1" parent="1">
          <mxGeometry x="40" y="200" width="190" height="140" as="geometry" />
        </mxCell>
      </root>
    </mxGraphModel>
  </diagram>
</mxfile>
